# xmcd CD database file
#
# Track frame offsets:
#	150
#	15781
#	29635
#	42386
#	57959
#	73878
#	93930
#	104972
#	121752
#	139082
#	164299
#	181894
#	201384
#	219616
#	237289
#	252195
#	267639
#	283989
#
# Disc length: 4007 seconds
#
# Revision: 14
# Processed by: cddbd v1.5.2PL0 Copyright (c) Steve Scherf et al.
# Submitted via: CDex 2.18
#
DISCID=170fa512
DTITLE=Toby Keith - 35 Biggest Hits - CD1
DYEAR=2008
DGENRE=Country
TTITLE0=Should've Been A Cowboy
TTITLE1=He Ain't Worth Missing
TTITLE2=A Little Less Talk And A Lot More Action
TTITLE3=Wish I Didn't Know Now
TTITLE4=Who's That Man
TTITLE5=Upstairs Downtown
TTITLE6=You Ain't Much Fun
TTITLE7=Big Ol' Truck
TTITLE8=Does That Blue Moon Ever Shine On You
TTITLE9=A Woman's Touch
TTITLE10=Me Too
TTITLE11=We Were In Love
TTITLE12=I'm So Happy I Can't Stop Crying
TTITLE13=Dream Walkin'
TTITLE14=Getcha Some
TTITLE15=Do You Like Me Now
TTITLE16=Country Comes To Town
TTITLE17=You Shouldn't Kiss Me Like This
EXTD=YEAR: 2008
EXTT0=
EXTT1=
EXTT2=
EXTT3=
EXTT4=
EXTT5=
EXTT6=
EXTT7=
EXTT8=
EXTT9=
EXTT10=
EXTT11=
EXTT12=
EXTT13=
EXTT14=
EXTT15=
EXTT16=
EXTT17=
PLAYORDER=
